<svg
  version="1.1"
  xmlns="http://www.w3.org/2000/svg"
  xmlns:xlink="http://www.w3.org/1999/xlink"
  x="0px"
  y="0px"
  width="100%"
  viewBox="0 0 992 992"
  enable-background="new 0 0 992 992"
  xml:space="preserve"
>
  <path
    fill="#fff"
    opacity="1.000000"
    stroke="none"
    d="
M512.649780,635.354004 
	C526.282593,649.070251 539.832214,662.384094 553.030823,676.037354 
	C568.092712,691.618042 567.774536,717.049500 552.496582,732.471741 
	C534.320618,750.819397 515.916382,768.941467 497.790283,787.337891 
	C475.335541,810.127563 448.004211,823.471680 416.682404,828.097595 
	C372.362488,834.643127 332.942230,822.778320 298.782684,793.861633 
	C292.343140,788.410461 286.084930,782.632324 282.472351,774.559021 
	C275.466705,758.903198 278.807007,739.322266 292.340668,725.990173 
	C334.350098,684.606506 375.948578,642.804871 417.595764,601.054993 
	C424.571930,594.061646 432.569611,589.512268 442.362640,588.249023 
	C454.958099,586.624207 466.317383,589.649780 475.529297,598.484009 
	C488.031067,610.473267 500.136292,622.876099 512.649780,635.354004 
z"
  />
  <path
    fill="#fff"
    opacity="1.000000"
    stroke="none"
    d="
M284.408447,543.362671 
	C273.008881,503.488403 277.090149,465.643585 296.676514,429.548828 
	C302.500519,418.816101 309.669098,409.016205 318.354034,400.362030 
	C337.236389,381.546570 356.026917,362.638672 374.959229,343.873749 
	C391.397461,327.580811 416.827026,327.572113 433.304749,343.945343 
	C458.243164,368.725464 483.091187,393.597473 507.852020,418.555054 
	C524.631836,435.468170 524.399414,460.589905 507.513062,477.530182 
	C466.228699,518.946411 424.827484,560.246887 383.708679,601.826721 
	C374.071472,611.572021 363.306458,617.862915 349.351227,617.228394 
	C339.406036,616.776184 330.639160,613.325256 323.213806,606.344238 
	C304.683167,588.922607 291.982574,567.977234 284.408447,543.362671 
z"
  />
  <path
    fill="#fff"
    opacity="1.000000"
    stroke="none"
    d="
M499.808960,589.190491 
	C491.185242,581.291931 484.089691,572.942932 482.368378,561.092224 
	C480.370331,547.336487 483.633698,535.274719 493.463104,525.369507 
	C516.571472,502.082855 539.823914,478.939270 563.014099,455.733856 
	C582.789429,435.945587 602.477295,416.069031 622.357666,396.386871 
	C638.302185,380.601318 663.873901,381.087677 679.955933,396.743561 
	C705.648376,421.755188 720.072815,452.323212 722.985657,487.672211 
	C726.550964,530.938354 713.743652,569.371826 683.636292,601.117371 
	C664.958923,620.810974 645.399658,639.671265 626.137268,658.805908 
	C611.302673,673.542114 586.567749,674.545593 571.289612,660.243591 
	C555.246216,645.225159 540.003052,629.351501 524.427490,613.834045 
	C516.285339,605.722290 508.180481,597.573120 499.808960,589.190491 
z"
  />
  <path
    fill="#fff"
    opacity="1.000000"
    stroke="none"
    d="
M500.961792,378.037933 
	C483.634979,360.709778 466.549133,343.640717 449.485992,326.548920 
	C434.195770,311.233063 433.668213,285.529419 448.777985,270.121124 
	C468.948151,249.552353 488.989929,228.818466 509.967102,209.091507 
	C530.232605,190.033798 554.861023,178.788406 582.362854,174.567200 
	C631.434998,167.035187 674.106323,180.259659 710.189148,214.663055 
	C727.687073,231.346649 726.387390,259.267822 710.012817,275.310760 
	C667.664001,316.801849 625.697510,358.697510 584.267944,401.105316 
	C568.067200,417.688629 539.731445,418.628174 523.749939,400.968353 
	C516.606079,393.074371 508.747070,385.827606 500.961792,378.037933 
z"
  />
</svg>
